<svg xmlns="http://www.w3.org/2000/svg" viewBox="0 -0.5 16 16" shape-rendering="crispEdges">
<metadata>Made with Pixels to Svg https://codepen.io/shshaw/pen/XbxvNj</metadata>
<path stroke="#000000" d="M3 1h1M12 1h1M2 2h12M2 3h12M2 4h12M2 5h3M6 5h4M11 5h3M2 6h12M2 7h4M10 7h4M2 8h3M11 8h3M2 9h2M12 9h2M2 10h2M12 10h2M6 12h4M6 13h4" />
<path stroke="#69bd2f" d="M5 5h1M10 5h1" />
<path stroke="#ffffff" d="M6 7h4M5 8h2M9 8h2M4 9h3M9 9h3M4 10h2M10 10h2M2 11h12M2 12h4M10 12h4M2 13h4M10 13h4" />
<path stroke="#ff595f" d="M7 8h2" />
<path stroke="#cadbfb" d="M7 9h2M6 10h4" />
</svg>